<?xml version="1.0" encoding="utf-8"?>
<!-- Generator: Adobe Illustrator 22.1.0, SVG Export Plug-In . SVG Version: 6.00 Build 0)  -->
<svg version="1.1" id="Слой_1" xmlns="http://www.w3.org/2000/svg" xmlns:xlink="http://www.w3.org/1999/xlink" x="0px" y="0px"
	 viewBox="0 0 610.3 340.2" style="enable-background:new 0 0 610.3 340.2;" xml:space="preserve">
<style type="text/css">
	.st0{fill:#1477BD;}
	.st1{fill:url(#SVGID_1_);}
	.st2{fill:#1D1D1B;}
</style>
<g>
	<path class="st0" d="M413.6,118.7c-1-1.2-3.2-2.7-3.5-4.5c-0.7-3.3,2.9-6.5,6.3-6.5c3.1,0,5.5,2.5,5.3,5.8
		C421.3,117.6,418.2,118,413.6,118.7z"/>
	<g>
		<g>
			<linearGradient id="SVGID_1_" gradientUnits="userSpaceOnUse" x1="485.7645" y1="233.5955" x2="241.098" y2="-11.071">
				<stop  offset="0" style="stop-color:#24A3DB"/>
				<stop  offset="1" style="stop-color:#283991"/>
			</linearGradient>
			<path class="st1" d="M405.3,252.7c0.4-16.2-8.8-28.7-24.5-32.6c-4.5-1.1-9.3-1.7-14-1.7c-23.4-0.2-46.8-0.1-70.1-0.1
				c-0.9,0-1.9,0-2.8,0c-2,10.2-2.9,20-1.8,30.4c1.2,0,2.2,0,3.3,0c6.3,0,12.6,0,18.8,0c14.8,0,29.6,0,44.3,0c1.6,0,3.3,0.1,4.8,0.6
				c3.6,1.2,5.6,5.1,5,8.9c-0.7,3.9-4,6.5-8.4,6.5c-20.4,0-40.8,0-61.2,0h-3.3c2.1,8,5,15.2,8.7,22.1c1.2,2.1,2.5,2.9,5,2.9
				c16.8-0.1,33.6-0.1,50.4-0.1c4.1,0,6.9,1.8,8.3,5.2c2.2,5.5-1.8,11-8.1,11c-12.8,0.1-25.5,0-38.3,0c-1,0-2,0-3.7,0
				c8.9,9.9,17.9,18.3,28.8,24.5c15,8.6,29.6,6.2,43.6-2.2c16.4-9.8,17.4-40.8-2.4-48.8c-0.2-0.1-0.5-0.1-1.1-0.3
				C398.9,273.8,405.1,265.3,405.3,252.7z M284,218.5h-43.6c2.7,9.5,5.7,18.7,9,27.5c10.6,28.1,28.3,53.2,52.1,71.4
				c10.5,8.1,21.4,14.2,35.9,17.9C297.4,306,276.1,268.9,284,218.5z M604.8,58.8c-2.3,0-4.7-0.4-6.9,0.1c-4.8,1-9.4,2.4-14.1,3.5
				C541.6,73,499.6,83.8,457.4,94.1c-10.2,2.5-20.8,5.3-31.4,2.2c-8.6-2.5-17-5.8-25.3-9c-13.8-5.3-27.9-10.2-42.9-8.8
				c-27.3,2.5-53.2,10.1-77.2,23.4c-9.6,5.3-18.3,11.9-24.4,21.3c-0.4,0.6-1.2,1-1.8,1.5c-0.3-0.2-0.6-0.4-0.9-0.6
				c0.6-1.1,1-2.4,1.9-3.4c2.8-3,5.6-6.1,8.7-8.8c22.8-19.7,49.9-29.6,79.3-34c5-0.7,10-1.3,15.4-2c-0.8-1.2-1.1-1.7-1.4-2.1
				c-31.3-33.7-68.4-57.4-114-66.8c-4.1-0.8-8.3-1.7-12.4-2.6h-5.3c0.5,4.2,1,8.3,1.6,12.7c-2.6,1.3-5.6,2.8-8.5,4.3
				c0.1,0.4,0.2,0.8,0.3,1.2c9.7,0.9,19.4,1.6,28.1,6.3c-0.1,0.4-0.1,0.8-0.2,1.2c-5.7-0.4-11.3-0.9-17-1.3c5.5,3.9,11.9,3.3,18,4.4
				c6,1.1,11.9,2.5,17.9,3.8c-0.1,0.5-0.2,1-0.3,1.6c-11.1,1.6-21.8-1.7-33.5-3.5c1.3,2.5,2,3.9,2.8,5.4c-1.1,0.9-2.1,1.6-3.1,2.3
				c0.6,2.1,1.1,4,1.7,6.2c-4.2-0.4-7.8-0.8-11.4-1.2c-0.1,0.4-0.2,0.9-0.3,1.3c1.8,0.9,3.7,1.8,5.5,2.7c0,0.3-0.1,0.6-0.1,0.9
				c-3.6-0.2-7.3-0.4-10.9-0.6c-0.3,0.4-0.6,0.9-0.8,1.3c1.6,0.8,3.2,1.7,5.1,2.6c-4,1.7-6.9,2.8-9.7,4c0.2,0.4,0.5,1.3,0.9,2.1
				c-1.9,1.1-3.5,2-5.2,2.9c0.6,1.2,1.1,2.2,1.9,3.8c-2.6,0.4-4.7,0.6-6.8,1.1c-1.2,0.3-2.3,1-3.2,1.7c-1.7,1.4-3,3.4-4.8,4.4
				c-8.5,4.7-17.1,9.2-25.7,13.8c-1.1,0.6-1.9,1.5-2.9,2.2c1.9,0.6,3.5,0.4,4.9-0.2c2.6-1.1,5-2.6,7.5-3.7c7.3-3.3,14.9-5.4,24.4-5
				c-7.4,2.7-13.7,4.7-19.8,7.2c-13.4,5.4-26.7,11.2-37.9,20.5c-3.4,2.8-6.1,6.4-9.1,9.6c0.3,0.4,0.7,0.7,1,1.1
				c1.2-0.8,2.3-1.6,3.6-2.3c8.3-5,16.4-10.5,25-14.9c20.4-10.5,42-17.4,65.2-16.5c7.4,0.3,14.8,1.9,22.2,2.8
				c-0.1,0.7-0.1,1.3-0.2,2c-4.1,0-8.2,0.2-12.2,0c-19.5-1.3-38.6-0.8-56.1,9.7c-3.8,2.3-8.5,3.2-12.9,4.6c-2.6,0.8-5.4,1.3-8.2,2
				c0.5,1.2,0.9,2,1.3,3c-4.4,1.5-8.5,3-13.8,4.8c2.9,0.9,4.4,1.5,6,2c0.1,0.4,0.1,0.8,0.2,1.1c-9.8,3.3-19.5,6.5-29.3,9.8
				c0,0.2,0,0.5,0.1,0.7c6.2,0.9,12.4,1.7,19.6,2.7c-3.6,1.9-6.5,3.2-9.1,5c-1.1,0.8-2.1,2.5-2.2,3.9c-0.4,4.3-3.3,8.5-6.9,9.3
				c0.3,0.4,0.5,0.7,0.8,1.1c-3.4,2.6-6.8,5.3-10.2,7.9c1.2,0.4,2.2,0.3,3.2-0.1c14.8-5.1,29.1-11.2,42.6-19.2
				c8.7-5.1,17.8-9.8,27.1-13.8c13.8-6,28.3-9.3,43.5-7.6c2.6,0.3,5.1,0.9,7.6,1.4c-0.1,0.4-0.1,0.8-0.2,1.2c-2.5,0-5-0.1-7.5,0
				c-18.9,0.6-37.3,3.4-54.1,12.6c-15,8.2-30,16.4-44.9,24.7c-0.9,0.5-1.7,1.2-3.2,2.2c4,0.6,7.2,0.7,10.3,1.5c3.9,1,7.1,0.3,10.4-2
				c5.2-3.6,10.7-6.8,16.1-10.1c12.3-7.5,25.5-12.8,39.8-15.1c6.8-1.1,13.6-1.1,19.9,2c7.1,3.4,11.1,11.2,7.9,16.9
				c-5.3,9.6-0.9,19.6-2.8,29.2c0.5,0.1,1.1,0.1,1.6,0.2c0.2-3.4,0.4-6.7,0.6-10.5c2.4,1.8,4.1,3.1,5.8,4.4c0.3-0.3,0.6-0.5,0.9-0.8
				c-0.5-1.1-1.2-2.2-1.3-3.4c-0.2-2.3-0.9-5.5,0.2-6.7c1.3-1.2,4.4-0.6,6.9-0.7c0.5-0.6,1.2-2.1,2.2-2.5c3.5-1,7.1-1.9,10.7-2.3
				c9.3-1,18.8,7.3,27.9,3.3c0.8-0.4,2.2,0.5,3.3,0.7c2,0.5,3.9,1.4,5.9,1.3c10.1-0.2,20.2-0.5,30.3-1c8.5-0.4,17-0.9,25.5-1.5
				c1.2-0.1,3.3-1,3.3-1.4c-0.2-3.4,2.2-3.8,4.5-4.9c1.9-0.9,3.3-2.8,5.4-4.7c-1.5-0.3-1.9-0.5-2.3-0.5c-18.4-0.8-36.6-1.6-54.7-1.1
				c13.8-1.8,27.7-3.9,41.7-1.1c6,1.2,12.2,0.7,17.5-2.5c-4.2-3.8-8.6-7-12.2-11.1c-5.9-6.7-6.4-19.8-1.9-27.4
				c1.1-1.8,3.6-3.3,5.8-3.8c4.6-1,9.3-1.2,14-1.6c16-1.2,31.9-3.5,48-1.3c9.3,1.3,18.5,0.3,27.5-2.4c4-1.2,8.2-1.9,12.3-2.9
				c0.1,0.2,0.2,0.4,0.3,0.7c-2.4,1.6-4.9,3.2-7.3,4.8c18.8-7.2,37.5-14.1,57.1-18.5c-3.8,1.6-7.7,2.7-11.5,4.3
				c-17.7,7.2-35.4,14.4-52.9,22.1c-6.2,2.8-12.3,6.6-15.3,13.5c-0.3,0.7-1.3,1.4-2,1.5c-8.3,0.6-16.5,1.1-24.8,1.5
				c-0.2-0.3-0.3-0.7-0.5-1c2.4-1.8,4.8-3.6,7.9-6c-5.8,1.2-10.6,2.6-12.1,7.9c-0.6,2,1,4.5,1.6,6.9c2.6-1.8,4-3.6,5.7-3.9
				c22.9-3.8,45.5-2.6,67.4,5.9c0.8,0.3,1.5,0.9,2.8,1.7c-2.2,0-3.5,0.1-4.8,0c-17.8-1.5-35.5-2.7-53.3,0
				c-10.2,1.5-20.7,0.8-30.5-3.3c-8.6-3.5-11-11.7-6.2-19.6c0.7-1.2,1.5-2.3,2.9-4.3c-4.8,0.4-5.6,3.5-6.6,5.9
				c-4.1,9.4-0.3,16.1,8.4,21.1c-5.1,2.1-9.3,3.7-13.5,5.5c-2.1,0.9-3.1,2.6-0.9,4.4c6,4.5,12,14.4,20.3,13.6
				c3.3-0.3,6.8,0.2,10.2,0.4c0,0.4,0,0.9,0,1.3c-8.9,1.1-31.1,2.2-40,3.3c0.1,0.5,0.1,1,0.2,1.4c7.4-0.6,28-1.3,35.4-1.7
				c4.1-0.2,8.3,0,13.4,0c-1.8-2-2.7-3.1-4.2-4.9c26.8-7.5,51.8-26.8,80.8-18.9c-14.5-13.6-33.5-13.3-52.1-16.8
				c1.2-2.3,1.6-4.8,3.1-5.9c4.8-3.8,9.6-7.9,15.1-10.4c13.7-6.1,27.5-12.1,41.8-16.8c33.2-10.8,66.6-20.8,99.9-31.1
				c1.9-0.6,3.8-1.4,5.7-2C605,60.2,604.9,59.5,604.8,58.8z M352.5,112.1c-3.3,8.8-1.7,22.1,3.8,29.5c1,1.4,2,2.7,3.1,4
				c-0.1,0.6-0.1,1.3-0.2,1.9c-20.9-1.4-41.5-0.3-61.6,5.3c-15.1,1.1-30,3.4-44.9,7.9c-2,0.6-4.3,0.2-6.5,0.3
				c0.6-2.5,1.1-5.1,1.8-7.6c0.5-1.5,1.3-3,2-4.5c0.5,0.6,1,1.1,1.6,1.7c1.9,1.8,3.8,3.7,5.7,5.5c0.4-0.1,0.8-0.3,1.2-0.4
				c-2.9-6.9-4.7-13.5,4.7-16.9c3.2,3.8,4.9,9.4,11,10.6c-1.7-3.7-3.6-7-4.7-10.6c-0.4-1.4,0.3-4.2,1.4-4.9
				c5.4-3.4,11.1-6.4,16.8-9.5c4,5.4,5.8,17.4,12.6,20.3c-2.2-5-4.1-14.8-6-19.2c-1.2-2.9,0-4.4,2.7-5.2c4.5-1.3,9.2-2.3,13.6-4
				c3.5-1.3,5.2-0.4,6,3.1c1,4.7,2.3,14.6,3.5,19.2c0.4,0,0.7,0,1.1,0c0.5-5.8,0.8-16.9,1.5-22.6c0.2-1.4,1.4-3.4,2.5-3.7
				c4.7-1.2,9.5-1.9,14.3-2.8c2.5-0.5,3.8,0.7,4.6,3c1,2.7,2.2,5.4,3.3,8.1c0.3-0.1,0.5-0.2,0.8-0.2v-13.3c1.7,0.3,3.4,0.2,4.8,0.9
				C353.4,108.4,353,110.9,352.5,112.1z M412.5,118c4.5-0.7,7.7-1.2,8-5.3c0.2-3.3-2.2-5.8-5.3-5.8c-3.4,0-6.9,3.2-6.3,6.5
				C409.3,115.3,411.5,116.8,412.5,118z"/>
		</g>
	</g>
	<g>
		<path class="st2" d="M57.2,179.1L5.2,199.7v0.7H22l10.9-4.7h24.7c0,0,0,4.6,0,4.7s13,0,13,0v-21.3H57.2z M57.1,191h-11v-0.6
			l9.2-3.7h1.8V191z"/>
		<path class="st2" d="M562.1,210.5c-0.5-0.1-1-0.3-1.5-0.4c-20.5-4-41.2-5.5-61.9-5.3c-35.8,0.4-255.7,1.5-291.4,2.4
			c-27.9,0.7-55.7,0.1-83.3-4.3c-4.1-0.7-8.2-1.5-12.6-2.4c-0.3-0.3-9.7-5.4-9.7-5.4H91.6v0.4l9.5,4.4l3.4,0.9l0,1.4
			c12.9,3.7,26.1,6.5,39.5,7.7c21.3,1.9,42.6,1.9,63.9,1.4c33-0.8,250-1.9,283-2.8c19.7-0.6,39.3,0,58.6,4.6
			c0.7,0.2,1.4,0.2,2.1,0.1c3.5-0.6,7-1.3,10.5-1.9C562.2,210.9,562.2,210.7,562.1,210.5z"/>
		<g>
			<path class="st2" d="M116.9,196.5c0,1.5-2.2,2.5-6.6,3.2l6.6,1.8l-10.7,0.9l-7.6-2.2h-7.1c-6.5,0-11.1-0.7-13.7-2.2
				c-0.8-0.4-1.3-1-1.3-1.6v-13.8c0-1.1,1.5-2,4.4-2.7s6.5-1.1,10.6-1.1h10.4c6.5,0,11.1,0.7,13.7,2.2c0.8,0.4,1.3,1,1.3,1.6V196.5z
				 M99.5,197.5c3.4,0,5.1-0.5,5.1-1.4v-12.8c0-1-1.7-1.4-5.1-1.4h-5.6c-3.5,0-5.2,0.5-5.2,1.4V196c0,1,1.7,1.4,5.2,1.4H99.5z"/>
			<path class="st2" d="M150.1,197.5c3.4,0,5.1-0.5,5.1-1.4v-17.2h12.3v17.6c0,1.2-1.5,2.1-4.4,2.8c-2.9,0.7-6.5,1.1-10.6,1.1h-10.4
				c-6.5,0-11.1-0.7-13.7-2.2c-0.9-0.5-1.3-1-1.3-1.6v-17.6h12.2v17.2c0,1,1.7,1.4,5.2,1.4H150.1z"/>
			<path class="st2" d="M211.1,178.9l19.4,21.5h-12.2l-4.4-5.1h-23.2l-4.3,5.1h-12.2l19.3-21.5H211.1z M193.1,192.4h18.4l-9.1-9.5
				L193.1,192.4z"/>
			<path class="st2" d="M277.3,197.5c3.4,0,5.1-0.5,5.1-1.4v-2.4h12.2v2.9c0,1.2-1.5,2.1-4.6,2.8c-2.8,0.7-6.2,1-10.3,1h-8.5
				c-6.5,0-11.1-0.7-13.7-2.2c-0.8-0.5-1.3-1-1.3-1.6v-13.8c0-1.2,1.5-2.1,4.4-2.8s6.5-1.1,10.6-1.1h8.5c4.1,0,7.6,0.3,10.5,1
				c2.9,0.7,4.4,1.6,4.4,2.8v2.9h-12.2v-2.4c0-1-1.7-1.4-5.1-1.4h-3.7c-3.5,0-5.2,0.5-5.2,1.4v12.9c0,1,1.7,1.4,5.2,1.4H277.3z"/>
			<path class="st2" d="M303.1,182.8c0-1.2,1.5-2.1,4.4-2.8c2.9-0.7,6.5-1.1,10.6-1.1h10.4c6.5,0,11.1,0.7,13.7,2.2
				c0.8,0.5,1.3,1,1.3,1.6v13.8c0,1.2-1.5,2.1-4.4,2.8c-2.9,0.7-6.5,1.1-10.6,1.1h-10.4c-6.5,0-11.1-0.7-13.7-2.2
				c-0.8-0.5-1.3-1-1.3-1.6V182.8z M326.1,197.5c3.4,0,5.1-0.5,5.1-1.4v-12.9c0-1-1.7-1.4-5.1-1.4h-5.6c-3.5,0-5.2,0.5-5.2,1.4v12.9
				c0,1,1.7,1.4,5.2,1.4H326.1z"/>
			<path class="st2" d="M353.3,200.4v-21.5h12.6l19.1,13.1V179h12.3v21.4h-12.8l-18.9-12.9v12.9H353.3z"/>
			<path class="st2" d="M407.5,200.4v-21.5h12.6l19.1,13.1V179h12.3v21.4h-12.8l-18.9-12.9v12.9H407.5z"/>
			<path class="st2" d="M498.2,200.4h-36.5v-21.5h36.5v2.9H474v5.7H493v2.9H474v7.1h24.3V200.4z"/>
			<path class="st2" d="M528.3,197.5c3.4,0,5.1-0.5,5.1-1.4v-2.4h12.2v2.9c0,1.2-1.5,2.1-4.6,2.8c-2.8,0.7-6.2,1-10.3,1h-8.5
				c-6.5,0-11.1-0.7-13.7-2.2c-0.8-0.5-1.3-1-1.3-1.6v-13.8c0-1.2,1.5-2.1,4.4-2.8c2.9-0.7,6.5-1.1,10.6-1.1h8.5
				c4.1,0,7.6,0.3,10.5,1s4.4,1.6,4.4,2.8v2.9h-12.2v-2.4c0-1-1.7-1.4-5.1-1.4h-3.7c-3.5,0-5.2,0.5-5.2,1.4v12.9
				c0,1,1.7,1.4,5.2,1.4H528.3z"/>
			<path class="st2" d="M593.4,181.8h-14.5v18.6h-12.3v-18.6h-14.5v-2.9h41.3V181.8z"/>
		</g>
	</g>
</g>
</svg>
